<svg width="411" height="63" viewBox="0 0 411 63" fill="none" xmlns="http://www.w3.org/2000/svg">
<path d="M24.4 36.2C23.44 36.2 22.3733 36.1467 21.2 36.04C20.0267 35.9333 18.6933 35.72 17.2 35.4V51.08C17.2 52.7333 17.2533 54.04 17.36 55C17.4667 55.9067 17.7867 56.6 18.32 57.08C18.9067 57.56 19.7067 57.88 20.72 58.04C21.7867 58.2 23.4667 58.36 25.76 58.52C25.8667 59.3733 25.8667 60.2267 25.76 61.08C24.5867 61.08 23.1733 61.0533 21.52 61C19.92 61 18.32 61 16.72 61C15.1733 60.9467 13.8667 60.92 12.8 60.92C11.7867 60.92 10.5067 60.9467 8.96 61C7.46667 61 5.94667 61 4.4 61C2.90667 61.0533 1.57333 61.08 0.4 61.08C0.293333 60.28 0.293333 59.4267 0.4 58.52C2.96 58.2533 4.8 58.0133 5.92 57.8C7.04 57.5333 7.73333 57 8 56.2C8.26667 55.4 8.4 54.04 8.4 52.12V14.92C8.4 12.68 8.26667 11.08 8 10.12C7.73333 9.16 7.04 8.54666 5.92 8.28C4.8 7.96 2.96 7.69333 0.4 7.48C0.293333 6.68 0.293333 5.82666 0.4 4.92C1.46667 4.92 2.8 4.94666 4.4 5C6.05333 5 7.65333 5.02666 9.2 5.08C10.7467 5.08 11.8667 5.08 12.56 5.08C13.5733 5.08 14.8267 5.08 16.32 5.08C17.8667 5.02666 19.3867 4.97333 20.88 4.92C22.3733 4.86666 23.5467 4.84 24.4 4.84C27.76 4.84 30.88 5.32 33.76 6.28C36.64 7.18666 38.96 8.70666 40.72 10.84C42.48 12.9733 43.36 15.9067 43.36 19.64C43.36 23.2133 42.5333 26.2267 40.88 28.68C39.2267 31.1333 36.96 33 34.08 34.28C31.2533 35.56 28.0267 36.2 24.4 36.2ZM17.2 32.2C17.8933 32.36 18.6667 32.52 19.52 32.68C20.3733 32.84 21.28 32.92 22.24 32.92C25.76 32.92 28.5333 31.7467 30.56 29.4C32.5867 27 33.6 23.88 33.6 20.04C33.6 16.3067 32.5867 13.3733 30.56 11.24C28.5333 9.10666 25.4933 8.04 21.44 8.04C20.9067 8.04 20.24 8.06666 19.44 8.12C18.6933 8.17333 17.9467 8.25333 17.2 8.36V32.2ZM47.7438 61.08C47.6371 60.28 47.6371 59.4267 47.7438 58.52C50.3038 58.2533 52.1438 58.0133 53.2638 57.8C54.3838 57.5333 55.0771 57 55.3438 56.2C55.6104 55.4 55.7438 54.04 55.7438 52.12V14.92C55.7438 12.68 55.6104 11.08 55.3438 10.12C55.0771 9.16 54.3838 8.54666 53.2638 8.28C52.1438 7.96 50.3038 7.69333 47.7438 7.48C47.6371 6.68 47.6371 5.82666 47.7438 4.92C48.8104 4.92 50.1171 4.94666 51.6638 5C53.2638 5 54.8371 5.02666 56.3838 5.08C57.9304 5.08 59.1838 5.08 60.1438 5.08C61.1571 5.08 62.3838 5.08 63.8238 5.08C65.3171 5.02666 66.8104 5 68.3038 5C69.8504 4.94666 71.1571 4.92 72.2238 4.92C72.3838 5.72 72.3838 6.57333 72.2238 7.48C69.7704 7.69333 68.0104 7.93333 66.9438 8.2C65.8771 8.46666 65.2104 9 64.9438 9.8C64.6771 10.6 64.5438 11.96 64.5438 13.88V33.64L82.9438 14.12C84.9704 11.9333 85.9838 10.44 85.9838 9.64C85.9838 8.94666 85.5038 8.46666 84.5438 8.2C83.5838 7.88 82.0104 7.64 79.8238 7.48C79.7171 6.57333 79.7171 5.72 79.8238 4.92C80.7304 4.92 81.8771 4.94666 83.2638 5C84.6504 5 86.0371 5.02666 87.4238 5.08C88.8104 5.08 89.9304 5.08 90.7838 5.08C92.4904 5.08 94.0904 5.05333 95.5838 5C97.1304 4.94666 98.8104 4.92 100.624 4.92C100.73 5.77333 100.73 6.62666 100.624 7.48C98.9704 7.64 97.5838 7.85333 96.4638 8.12C95.3971 8.38667 94.3571 8.84 93.3438 9.48C92.3838 10.12 91.2904 11.0267 90.0638 12.2C88.8371 13.3733 87.2904 14.92 85.4238 16.84L73.6638 29L90.1438 50.68C91.4238 52.3333 92.4904 53.6667 93.3438 54.68C94.1971 55.64 95.0238 56.3867 95.8238 56.92C96.6771 57.4 97.6371 57.7467 98.7038 57.96C99.8238 58.1733 101.237 58.36 102.944 58.52C103.104 59.3733 103.104 60.2267 102.944 61.08C101.93 61.08 100.73 61.0533 99.3438 61C97.9571 61 96.5971 61 95.2638 61C93.9304 60.9467 92.7838 60.92 91.8238 60.92C91.2371 60.92 90.4638 60.9467 89.5038 61C88.5971 61 87.7704 61 87.0238 61L67.8238 35.16L64.5438 38.76V51.08C64.5438 53.32 64.6771 54.9467 64.9438 55.96C65.2104 56.92 65.8771 57.5333 66.9438 57.8C68.0638 58.0667 69.8238 58.3067 72.2238 58.52C72.3838 59.3733 72.3838 60.2267 72.2238 61.08C71.1571 61.08 69.8504 61.0533 68.3038 61C66.8104 61 65.2904 61 63.7438 61C62.2504 60.9467 60.9971 60.92 59.9838 60.92C58.9704 60.92 57.7171 60.9467 56.2238 61C54.7304 61 53.2104 61 51.6638 61C50.1704 61.0533 48.8638 61.08 47.7438 61.08ZM153.571 61.72L143.331 32.04L131.091 60.92C130.505 61.08 129.785 61.2133 128.931 61.32C128.078 61.4267 127.358 61.5067 126.771 61.56L110.611 15.8C109.918 13.88 109.331 12.3867 108.851 11.32C108.371 10.2533 107.838 9.48 107.251 9C106.665 8.52 105.891 8.2 104.931 8.04C104.025 7.82666 102.771 7.64 101.171 7.48C101.065 6.62666 101.065 5.77333 101.171 4.92C102.931 4.92 104.825 4.94666 106.851 5C108.931 5.05333 110.878 5.08 112.691 5.08C114.238 5.08 116.105 5.05333 118.291 5C120.531 4.94666 122.478 4.92 124.131 4.92C124.291 5.72 124.291 6.57333 124.131 7.48C121.945 7.69333 120.398 7.93333 119.491 8.2C118.585 8.46666 118.131 9.08 118.131 10.04C118.131 10.4133 118.211 10.8933 118.371 11.48C118.531 12.0133 118.745 12.7067 119.011 13.56L131.651 50.2L141.651 27L137.811 15.88C137.171 13.96 136.611 12.4667 136.131 11.4C135.705 10.28 135.225 9.48 134.691 9C134.158 8.52 133.465 8.2 132.611 8.04C131.811 7.82666 130.691 7.64 129.251 7.48C129.145 6.62666 129.145 5.77333 129.251 4.92C131.118 4.92 133.011 4.94666 134.931 5C136.851 5.05333 138.718 5.08 140.531 5.08C142.131 5.08 144.078 5.05333 146.371 5C148.665 4.94666 150.691 4.92 152.451 4.92C152.611 5.72 152.611 6.57333 152.451 7.48C149.838 7.69333 147.998 7.93333 146.931 8.2C145.918 8.46666 145.411 9.10666 145.411 10.12C145.411 10.8667 145.678 12.0133 146.211 13.56L158.371 50.36L171.411 14.84C171.838 13.7733 172.158 12.8933 172.371 12.2C172.638 11.5067 172.771 10.8933 172.771 10.36C172.771 9.34667 172.238 8.68 171.171 8.36C170.105 7.98666 168.265 7.69333 165.651 7.48C165.491 6.57333 165.491 5.72 165.651 4.92C166.398 4.92 167.491 4.94666 168.931 5C170.371 5 171.811 5.02666 173.251 5.08C174.745 5.08 175.865 5.08 176.611 5.08C178.265 5.08 179.785 5.05333 181.171 5C182.558 4.94666 184.051 4.92 185.651 4.92C185.811 5.77333 185.811 6.62666 185.651 7.48C184.105 7.64 182.825 7.82666 181.811 8.04C180.851 8.25333 180.025 8.65333 179.331 9.24C178.638 9.77333 177.971 10.6533 177.331 11.88C176.745 13.0533 176.051 14.68 175.251 16.76L157.811 61.08C157.278 61.24 156.558 61.3733 155.651 61.48C154.798 61.5867 154.105 61.6667 153.571 61.72ZM222.029 48.84L239.149 5C240.269 5.05333 241.442 5.08 242.669 5.08C243.895 5.08 244.935 5.08 245.789 5.08C246.215 5.08 246.989 5.08 248.109 5.08C249.282 5.02666 250.535 5 251.869 5C253.255 5 254.509 5 255.629 5C256.802 4.94666 257.602 4.92 258.029 4.92C258.189 5.72 258.189 6.54666 258.029 7.4H257.869C255.415 7.66667 253.629 7.93333 252.509 8.2C251.389 8.41333 250.695 8.94666 250.429 9.8C250.215 10.6 250.109 11.9333 250.109 13.8L250.749 51.16C250.749 52.8133 250.802 54.12 250.909 55.08C251.015 56.04 251.309 56.7333 251.789 57.16C252.269 57.5867 253.042 57.9067 254.109 58.12C255.175 58.28 256.695 58.44 258.669 58.6C258.829 59.4 258.829 60.2267 258.669 61.08C258.242 61.08 257.442 61.0533 256.269 61C255.149 61 253.895 61 252.509 61C251.175 61 249.922 61 248.749 61C247.629 60.9467 246.855 60.92 246.429 60.92C246.002 60.92 245.229 60.9467 244.109 61C242.989 61 241.762 61 240.429 61C239.095 61 237.869 61 236.749 61C235.629 61.0533 234.855 61.08 234.429 61.08C234.375 60.28 234.375 59.4533 234.429 58.6H234.589C236.935 58.3333 238.642 58.0933 239.709 57.88C240.775 57.6133 241.415 57.08 241.629 56.28C241.895 55.4267 242.029 54.0667 242.029 52.2L241.309 9.32L221.149 60.92C220.775 61.08 220.189 61.1867 219.389 61.24C218.589 61.2933 217.895 61.32 217.309 61.32L198.349 11L197.069 52.2C197.015 53.96 197.095 55.24 197.309 56.04C197.522 56.7867 198.162 57.32 199.229 57.64C200.295 57.96 202.082 58.28 204.589 58.6C204.802 59.4533 204.802 60.28 204.589 61.08C204.055 61.08 203.122 61.0533 201.789 61C200.509 61 199.202 61 197.869 61C196.589 60.9467 195.655 60.92 195.069 60.92C194.749 60.92 194.109 60.9467 193.149 61C192.242 61 191.229 61 190.109 61C188.989 61 187.949 61 186.989 61C186.082 61.0533 185.469 61.08 185.149 61.08C185.042 60.2267 185.042 59.4 185.149 58.6C187.655 58.28 189.442 57.96 190.509 57.64C191.575 57.32 192.242 56.68 192.509 55.72C192.829 54.76 193.015 53.24 193.069 51.16L194.589 13.8C194.695 11.9333 194.615 10.6 194.349 9.8C194.082 9 193.362 8.46666 192.189 8.2C191.069 7.88 189.202 7.61333 186.589 7.4C186.535 6.54666 186.535 5.72 186.589 4.92C188.402 4.92 190.269 4.94666 192.189 5C194.109 5.05333 196.242 5.08 198.589 5.08C199.389 5.08 200.455 5.08 201.789 5.08C203.122 5.08 204.349 5.05333 205.469 5L222.029 48.84ZM281.689 61.96C277.902 61.96 274.702 61.08 272.089 59.32C269.475 57.56 267.475 55.2133 266.089 52.28C264.755 49.2933 264.089 46.0133 264.089 42.44C264.089 38.76 264.782 35.3467 266.169 32.2C267.609 29.0533 269.689 26.52 272.409 24.6C275.129 22.6267 278.435 21.64 282.329 21.64C287.022 21.64 290.675 23.0533 293.289 25.88C295.955 28.6533 297.289 32.2533 297.289 36.68C297.289 37.2133 297.262 37.6933 297.209 38.12C297.209 38.4933 297.182 38.8133 297.129 39.08L271.929 38.84C271.929 39.0533 271.929 39.24 271.929 39.4C271.929 44.6267 273.129 48.7333 275.529 51.72C277.929 54.7067 281.289 56.2 285.609 56.2C289.235 56.2 292.809 55.0267 296.329 52.68C296.862 53.32 297.262 53.9333 297.529 54.52C292.995 59.48 287.715 61.96 281.689 61.96ZM272.169 35.88L288.729 35.56C288.782 35.4533 288.809 35.32 288.809 35.16C288.809 34.9467 288.809 34.8133 288.809 34.76C288.809 31.88 288.169 29.48 286.889 27.56C285.662 25.64 283.822 24.68 281.369 24.68C279.075 24.68 277.075 25.6133 275.369 27.48C273.662 29.3467 272.595 32.1467 272.169 35.88ZM334.014 62.04L332.734 61.48L332.414 55.96C330.548 57.9867 328.628 59.5067 326.654 60.52C324.734 61.48 322.601 61.96 320.254 61.96C316.948 61.96 314.041 61.08 311.534 59.32C309.081 57.5067 307.188 55.16 305.854 52.28C304.521 49.4 303.854 46.28 303.854 42.92C303.854 39.0267 304.681 35.48 306.334 32.28C308.041 29.08 310.414 26.52 313.454 24.6C316.548 22.6267 320.148 21.64 324.254 21.64C325.481 21.64 326.761 21.7467 328.094 21.96C329.428 22.12 330.814 22.4133 332.254 22.84V12.6C332.254 10.9467 332.094 9.72 331.774 8.92C331.454 8.06666 330.814 7.48 329.854 7.16C328.948 6.78667 327.561 6.52 325.694 6.36C325.534 5.66666 325.534 4.94666 325.694 4.2C327.828 3.93333 330.014 3.53333 332.254 3C334.494 2.41333 336.788 1.61333 339.134 0.599996L340.494 1.08C340.441 2.25333 340.388 3.58666 340.334 5.08C340.334 6.57333 340.334 8.2 340.334 9.96V49.64C340.334 51.6667 340.414 53.1867 340.574 54.2C340.734 55.2133 341.214 55.9333 342.014 56.36C342.814 56.7333 344.174 57.08 346.094 57.4C346.254 58.0933 346.254 58.8133 346.094 59.56C343.961 59.88 341.881 60.2267 339.854 60.6C337.828 60.9733 335.881 61.4533 334.014 62.04ZM332.334 29.64C330.041 26.4933 327.028 24.92 323.294 24.92C319.614 24.92 316.841 26.28 314.974 29C313.108 31.6667 312.174 35.3733 312.174 40.12C312.174 42.8933 312.548 45.56 313.294 48.12C314.041 50.68 315.268 52.7867 316.974 54.44C318.681 56.0933 320.948 56.92 323.774 56.92C327.348 56.92 330.201 55.3733 332.334 52.28V29.64ZM370.004 61.08C368.51 61.08 366.964 61.0533 365.364 61C363.764 60.9467 362.03 60.92 360.164 60.92C358.457 60.92 356.724 60.9467 354.964 61C353.257 61.0533 351.604 61.08 350.004 61.08C349.844 60.2267 349.844 59.4 350.004 58.6C351.817 58.4933 353.15 58.3333 354.004 58.12C354.857 57.8533 355.417 57.32 355.684 56.52C355.95 55.72 356.084 54.44 356.084 52.68V34.76C356.084 32.68 356.004 31.1333 355.844 30.12C355.684 29.1067 355.177 28.4133 354.324 28.04C353.524 27.6133 352.11 27.2667 350.084 27C349.924 26.2533 349.924 25.56 350.084 24.92C352.43 24.4933 354.67 23.96 356.804 23.32C358.937 22.68 360.99 21.9867 362.964 21.24L364.324 21.72C364.27 23.3733 364.217 24.92 364.164 26.36C364.164 27.8 364.164 29.16 364.164 30.44V51.88C364.164 53.96 364.27 55.4533 364.484 56.36C364.75 57.2667 365.284 57.8533 366.084 58.12C366.937 58.3333 368.244 58.4933 370.004 58.6C370.164 59.4 370.164 60.2267 370.004 61.08ZM354.004 7.64C354.004 6.09333 354.537 4.78666 355.604 3.72C356.724 2.65333 358.057 2.12 359.604 2.12C361.097 2.12 362.377 2.65333 363.444 3.72C364.564 4.78666 365.124 6.06666 365.124 7.56C365.124 8.94666 364.59 10.2267 363.524 11.4C362.457 12.52 361.097 13.08 359.444 13.08C357.95 13.08 356.67 12.5467 355.604 11.48C354.537 10.4133 354.004 9.13333 354.004 7.64ZM402.312 61.8C398.792 61.8 396.579 60.04 395.672 56.52C391.885 60.1467 388.019 61.96 384.072 61.96C381.352 61.96 379.032 61.16 377.112 59.56C375.245 57.9067 374.312 55.64 374.312 52.76C374.312 45.72 381.485 41.2933 395.832 39.48C395.832 38.2 395.832 36.8933 395.832 35.56C395.885 34.2267 395.912 32.8133 395.912 31.32C395.912 29.4533 395.219 28.0133 393.832 27C392.499 25.9333 390.872 25.4 388.952 25.4C387.565 25.4 386.392 25.6133 385.432 26.04C385.432 27.2667 385.165 28.52 384.632 29.8C384.099 31.08 383.352 32.1733 382.392 33.08C381.485 33.9333 380.365 34.36 379.032 34.36C377.859 34.36 376.925 34.04 376.232 33.4C375.592 32.7067 375.272 31.88 375.272 30.92C375.272 29.64 375.859 28.44 377.032 27.32C378.259 26.1467 379.805 25.16 381.672 24.36C383.539 23.5067 385.485 22.84 387.512 22.36C389.539 21.88 391.352 21.64 392.952 21.64C394.925 21.64 396.739 22.0133 398.392 22.76C400.099 23.4533 401.459 24.52 402.472 25.96C403.539 27.3467 404.072 29.08 404.072 31.16C404.072 32.44 404.045 34.12 403.992 36.2C403.939 38.2267 403.885 40.4133 403.832 42.76C403.832 45.0533 403.805 47.24 403.752 49.32C403.699 51.4 403.672 53.08 403.672 54.36C403.672 56.0667 404.419 56.92 405.912 56.92C406.872 56.92 408.339 56.6 410.312 55.96C410.525 56.2267 410.659 56.52 410.712 56.84C410.819 57.16 410.899 57.4533 410.952 57.72C409.619 59.16 408.205 60.2 406.712 60.84C405.272 61.48 403.805 61.8 402.312 61.8ZM395.672 54.36L395.832 42.36C390.925 43 387.539 44.04 385.672 45.48C383.859 46.92 382.952 48.76 382.952 51C382.952 52.8667 383.432 54.3067 384.392 55.32C385.405 56.28 386.659 56.76 388.152 56.76C389.112 56.76 390.179 56.5467 391.352 56.12C392.579 55.6933 394.019 55.1067 395.672 54.36Z" fill="#043785"/>
</svg>
